<svg width="20" height="24" viewBox="0 0 20 24" fill="none" xmlns="http://www.w3.org/2000/svg">
<path fill-rule="evenodd" clip-rule="evenodd" d="M16.667 18.6666H3.33366V5.33329H16.667V18.6666ZM8.77985 14.474C8.6783 14.4317 8.58613 14.3697 8.50866 14.2916L6.90866 12.6916C6.75174 12.5347 6.66358 12.3219 6.66358 12.1C6.66358 11.878 6.75174 11.6652 6.90866 11.5083C7.06558 11.3514 7.27841 11.2632 7.50033 11.2632C7.72224 11.2632 7.93507 11.3514 8.09199 11.5083L9.10033 12.525L11.9087 9.70829C12.0656 9.55137 12.2784 9.46322 12.5003 9.46322C12.7222 9.46322 12.9351 9.55137 13.092 9.70829C13.2489 9.86521 13.3371 10.078 13.3371 10.3C13.3371 10.5219 13.2489 10.7347 13.092 10.8916L9.69199 14.2916C9.61452 14.3697 9.52236 14.4317 9.42081 14.474C9.31926 14.5163 9.21034 14.5381 9.10033 14.5381C8.99032 14.5381 8.88139 14.5163 8.77985 14.474Z" fill="#2EAADC"/>
<path fill-rule="evenodd" clip-rule="evenodd" d="M2.50033 3.66663H17.5003C17.7213 3.66663 17.9333 3.75442 18.0896 3.9107C18.2459 4.06698 18.3337 4.27895 18.3337 4.49996V19.5C18.3337 19.721 18.2459 19.9329 18.0896 20.0892C17.9333 20.2455 17.7213 20.3333 17.5003 20.3333H2.50033C2.27931 20.3333 2.06735 20.2455 1.91107 20.0892C1.75479 19.9329 1.66699 19.721 1.66699 19.5V4.49996C1.66699 4.27895 1.75479 4.06698 1.91107 3.9107C2.06735 3.75442 2.27931 3.66663 2.50033 3.66663ZM3.33366 18.6666H16.667V5.33329H3.33366V18.6666Z" fill="#2EAADC"/>
</svg>
