<svg width="20" height="24" viewBox="0 0 20 24" fill="none" xmlns="http://www.w3.org/2000/svg">
<path d="M17.5003 3.66663H2.50033C2.27931 3.66663 2.06735 3.75442 1.91107 3.9107C1.75479 4.06698 1.66699 4.27895 1.66699 4.49996V19.5C1.66699 19.721 1.75479 19.9329 1.91107 20.0892C2.06735 20.2455 2.27931 20.3333 2.50033 20.3333H17.5003C17.7213 20.3333 17.9333 20.2455 18.0896 20.0892C18.2459 19.9329 18.3337 19.721 18.3337 19.5V4.49996C18.3337 4.27895 18.2459 4.06698 18.0896 3.9107C17.9333 3.75442 17.7213 3.66663 17.5003 3.66663ZM16.667 18.6666H3.33366V5.33329H16.667V18.6666Z" fill="#37352F"/>
</svg>
